<svg width="24" height="24" viewBox="0 0 24 24" fill="none" xmlns="http://www.w3.org/2000/svg">
<path d="M22.5 11H1.5C1.225 11 1 11.225 1 11.5V13C1 18.515 5.485 23 11 23H13C18.515 23 23 18.515 23 13V11.5C23 11.225 22.775 11 22.5 11ZM22 13C22 17.96 17.96 22 13 22H11C6.04 22 2 17.96 2 13V12H22V13Z" fill="#016342"/>
<path d="M6.1477 7.07908L7.1277 7.23908C7.1527 7.23908 7.1827 7.24408 7.2077 7.24408C7.4477 7.24408 7.6577 7.07408 7.6977 6.82908C7.8527 5.94908 7.6477 5.05908 7.1277 4.32408C6.5877 3.56408 5.7827 3.06408 4.8477 2.90908L3.8677 2.74908C3.5977 2.70408 3.3427 2.88408 3.2927 3.15408C3.1377 4.03408 3.3427 4.92408 3.8627 5.65908C4.4027 6.41908 5.2077 6.91908 6.1427 7.07408L6.1477 7.07908ZM4.6877 3.89908C5.3527 4.00908 5.9327 4.36408 6.3127 4.90408C6.5777 5.27908 6.7277 5.71408 6.7477 6.16408L6.3077 6.09408C5.6427 5.98408 5.0627 5.62908 4.6827 5.08908C4.4177 4.71408 4.2677 4.27908 4.2477 3.82908L4.6827 3.89908H4.6877Z" fill="#016342"/>
<path d="M8.9401 9.47262C9.1101 9.49262 9.2751 9.50261 9.4401 9.50261C11.3901 9.50261 13.0901 8.10261 13.3501 6.18761L13.4951 5.09761C13.5151 4.96761 13.4751 4.83261 13.3951 4.72761C13.3151 4.62261 13.1951 4.55261 13.0601 4.53761C10.9101 4.27761 8.9301 5.74761 8.6501 7.82261L8.5051 8.91261C8.4851 9.04261 8.5251 9.17761 8.6051 9.28261C8.6851 9.38761 8.8051 9.45762 8.9401 9.47262ZM9.6451 7.95261C9.8301 6.58261 11.0301 5.56761 12.4351 5.50761L12.3601 6.05761C12.1751 7.42761 10.9751 8.44261 9.5701 8.50261L9.6451 7.95261Z" fill="#016342"/>
<path d="M15.4955 10.5121C15.5655 10.5471 15.6455 10.5671 15.7205 10.5671C15.9055 10.5671 16.0805 10.4671 16.1655 10.2921L20.0355 2.60706C20.2605 2.10206 20.8405 1.86706 21.3555 2.07706C21.8005 2.25706 22.0655 2.72706 21.9955 3.16206L20.3655 9.93206C20.3005 10.2021 20.4655 10.4721 20.7355 10.5371C21.0055 10.6021 21.2755 10.4371 21.3405 10.1671L22.9755 3.36206C23.1305 2.43206 22.6055 1.49706 21.7305 1.14706C20.7205 0.742062 19.5755 1.20206 19.1405 2.17706L15.2805 9.84206C15.1555 10.0871 15.2555 10.3871 15.5005 10.5121H15.4955Z" fill="#016342"/>
<path d="M8 17C8.275 17 8.5 16.775 8.5 16.5V16C8.5 15.725 8.275 15.5 8 15.5C7.725 15.5 7.5 15.725 7.5 16V16.5C7.5 16.775 7.725 17 8 17Z" fill="#016342"/>
<path d="M8 18C7.725 18 7.5 18.225 7.5 18.5V19C7.5 19.275 7.725 19.5 8 19.5C8.275 19.5 8.5 19.275 8.5 19V18.5C8.5 18.225 8.275 18 8 18Z" fill="#016342"/>
<path d="M6.5 18H7C7.275 18 7.5 17.775 7.5 17.5C7.5 17.225 7.275 17 7 17H6.5C6.225 17 6 17.225 6 17.5C6 17.775 6.225 18 6.5 18Z" fill="#016342"/>
<path d="M9 18H9.5C9.775 18 10 17.775 10 17.5C10 17.225 9.775 17 9.5 17H9C8.725 17 8.5 17.225 8.5 17.5C8.5 17.775 8.725 18 9 18Z" fill="#016342"/>
<path d="M16.5 14.5C16.775 14.5 17 14.275 17 14V13.5C17 13.225 16.775 13 16.5 13C16.225 13 16 13.225 16 13.5V14C16 14.275 16.225 14.5 16.5 14.5Z" fill="#016342"/>
<path d="M16.5 15.5C16.225 15.5 16 15.725 16 16V16.5C16 16.775 16.225 17 16.5 17C16.775 17 17 16.775 17 16.5V16C17 15.725 16.775 15.5 16.5 15.5Z" fill="#016342"/>
<path d="M15 15.5H15.5C15.775 15.5 16 15.275 16 15C16 14.725 15.775 14.5 15.5 14.5H15C14.725 14.5 14.5 14.725 14.5 15C14.5 15.275 14.725 15.5 15 15.5Z" fill="#016342"/>
<path d="M17.5 15.5H18C18.275 15.5 18.5 15.275 18.5 15C18.5 14.725 18.275 14.5 18 14.5H17.5C17.225 14.5 17 14.725 17 15C17 15.275 17.225 15.5 17.5 15.5Z" fill="#016342"/>
</svg>
