<svg width="24" height="24" viewBox="0 0 24 24" fill="none" xmlns="http://www.w3.org/2000/svg">
<g clip-path="url(#clip0_11149_1240)">
<path d="M14.8125 5.4375C15.0712 5.4375 15.2812 5.2275 15.2812 4.96875C15.2812 4.71 15.0712 4.5 14.8125 4.5C14.5538 4.5 14.3438 4.71 14.3438 4.96875C14.3438 5.2275 14.5538 5.4375 14.8125 5.4375Z" fill="#016342"/>
<path d="M16.1375 6.31597C17.2012 7.0932 18.0241 8.14597 18.5171 9.36036C18.6141 9.59905 18.8868 9.71623 19.1278 9.61836C19.3676 9.52095 19.4831 9.24758 19.3858 9.00772C18.8271 7.63175 17.8951 6.43916 16.6907 5.55903C16.4817 5.40636 16.1884 5.45192 16.0356 5.66094C15.8829 5.87 15.9285 6.16325 16.1375 6.31597Z" fill="#016342"/>
<path d="M23.5312 11.5312H21.8323C21.5941 6.47559 17.5244 2.40591 12.4688 2.16769V0.46875C12.4688 0.209906 12.2588 0 12 0C11.7412 0 11.5312 0.209906 11.5312 0.46875V2.16769C6.47564 2.40591 2.40591 6.47559 2.16769 11.5312H0.46875C0.209906 11.5312 0 11.7412 0 12C0 12.2588 0.209906 12.4688 0.46875 12.4688H2.16769C2.40591 17.5244 6.47564 21.5941 11.5312 21.8323V23.5312C11.5312 23.7901 11.7412 24 12 24C12.2588 24 12.4688 23.7901 12.4688 23.5312V21.8323C17.5244 21.5941 21.5941 17.5244 21.8323 12.4688H23.5312C23.7901 12.4688 24 12.2588 24 12C24 11.7412 23.7901 11.5312 23.5312 11.5312ZM20.8939 11.5312H17.6053C17.3791 8.80275 15.1973 6.62091 12.4688 6.39469V3.10608C17.0074 3.34256 20.6574 6.99263 20.8939 11.5312ZM15.75 12.4683H16.6641C16.4436 14.6795 14.68 16.4436 12.4688 16.6641V15.75C12.4688 15.4912 12.2588 15.2812 12 15.2812C11.7412 15.2812 11.5312 15.4912 11.5312 15.75V16.6641C9.32002 16.4436 7.55644 14.68 7.33589 12.4688H8.25C8.50884 12.4688 8.71875 12.2588 8.71875 12C8.71875 11.7412 8.50884 11.5312 8.25 11.5312H7.33589C7.55644 9.32002 9.32002 7.55644 11.5312 7.33589V8.25C11.5312 8.50884 11.7412 8.71875 12 8.71875C12.2588 8.71875 12.4688 8.50884 12.4688 8.25V7.33589C14.68 7.55644 16.4436 9.32002 16.6641 11.5312H15.75C15.4912 11.5312 15.2812 11.7412 15.2812 12C15.2812 12.2588 15.4912 12.4683 15.75 12.4683ZM11.5312 3.10608V6.39469C8.80275 6.62086 6.62091 8.80275 6.39469 11.5312H3.10608C3.34256 6.99263 6.99263 3.34256 11.5312 3.10608ZM3.10608 12.4688H6.39469C6.62086 15.1973 8.80275 17.3791 11.5312 17.6053V20.8939C6.99263 20.6574 3.34256 17.0074 3.10608 12.4688ZM12.4688 20.8939V17.6053C15.1973 17.3791 17.3791 15.1968 17.6053 12.4683H20.8939C20.6574 17.0069 17.0074 20.6574 12.4688 20.8939Z" fill="#016342"/>
<path d="M13.875 11.5312H12.4688V10.125C12.4688 9.86616 12.2588 9.65625 12 9.65625C11.7412 9.65625 11.5312 9.86616 11.5312 10.125V11.5312H10.125C9.86616 11.5312 9.65625 11.7412 9.65625 12C9.65625 12.2588 9.86616 12.4688 10.125 12.4688H11.5312V13.875C11.5312 14.1338 11.7412 14.3438 12 14.3438C12.2588 14.3438 12.4688 14.1338 12.4688 13.875V12.4688H13.875C14.1338 12.4688 14.3438 12.2588 14.3438 12C14.3438 11.7412 14.1338 11.5312 13.875 11.5312Z" fill="#016342"/>
</g>
<defs>
<clipPath id="clip0_11149_1240">
<rect width="24" height="24" fill="white"/>
</clipPath>
</defs>
</svg>
