<svg width="24" height="24" viewBox="0 0 24 24" fill="none" xmlns="http://www.w3.org/2000/svg">
<path d="M15.573 12.1711C15.7862 12.423 16.0219 12.4771 16.2798 12.3334C16.5198 12.183 16.5924 11.8665 16.442 11.6266L15.0256 9.3662V6.65343C15.0256 6.37026 14.796 6.14062 14.5128 6.14062C14.2296 6.14062 14 6.37026 14 6.65343V9.51358C14 9.60988 14.0271 9.70429 14.0783 9.78588L15.573 12.1711Z" fill="#016342"/>
<path d="M23.8854 15.9706C23.4932 14.7381 22.2629 14.117 21.0465 14.4317C22.1271 13.0246 22.7248 11.2951 22.7248 9.48215C22.7248 4.99027 19.0636 1.33594 14.5636 1.33594C10.0635 1.33594 6.40238 4.99027 6.40238 9.48215C6.40238 10.8639 6.74555 12.1985 7.40158 13.3917L4.86746 13.3983C4.78136 12.8312 4.29143 12.3953 3.70176 12.3953H1.17914C0.528955 12.3953 0 12.9253 0 13.5766V21.4872C0 22.1385 0.528955 22.6684 1.17914 22.6684H3.70171C4.30733 22.6684 4.80757 22.2086 4.87331 21.6191L11.113 22.5994C11.4639 22.6538 11.8103 22.6188 12.1523 22.4941L22.6645 18.5654C23.7415 18.1629 24.2436 17.0958 23.8854 15.9706ZM7.44681 9.99496H8.10012C8.38328 9.99496 8.61292 9.76532 8.61292 9.48215C8.61292 9.19898 8.38328 8.96935 8.10012 8.96935H7.44665C7.55993 7.38823 8.19263 5.94823 9.17526 4.81904L9.63062 5.27441C9.87236 5.47466 10.1141 5.47466 10.3559 5.27441C10.5561 5.07416 10.5561 4.74945 10.3559 4.54915L9.902 4.09527C11.0321 3.12008 12.4712 2.49251 14.0508 2.38005V3.0187C14.0508 3.30187 14.2804 3.5315 14.5636 3.5315C14.8467 3.5315 15.0764 3.30187 15.0764 3.0187V2.38005C16.656 2.49251 18.095 3.12008 19.2252 4.09532L18.7713 4.5492C18.5711 4.74945 18.5711 5.07416 18.7713 5.27446C19.0131 5.47471 19.2548 5.47471 19.4966 5.27446L19.9519 4.81909C20.9346 5.94828 21.5672 7.38828 21.6805 8.9694H21.0271C20.7439 8.9694 20.5143 9.19904 20.5143 9.48221C20.5143 9.76537 20.7439 9.99501 21.0271 9.99501H21.6802C21.5697 11.5386 20.9632 12.9898 19.9546 14.1479L19.4966 13.6899C19.2963 13.4898 18.9717 13.4898 18.7713 13.6899C18.5711 13.8902 18.5711 14.2149 18.7713 14.4152L19.2273 14.8711C19.2102 14.8859 14.231 16.1912 14.231 16.1912C14.5561 14.835 13.6082 13.3795 12.1516 13.3795L8.59702 13.3887C7.9254 12.3702 7.53306 11.2101 7.44681 9.99496ZM3.8553 21.4872C3.8553 21.573 3.78643 21.6428 3.70176 21.6428H1.17914C1.09447 21.6428 1.0256 21.573 1.0256 21.4872V13.5766C1.0256 13.4908 1.09447 13.4209 1.17914 13.4209H3.70171C3.78638 13.4209 3.85524 13.4908 3.85524 13.5766L3.8553 21.4872ZM22.3054 17.6046L11.7933 21.5334C11.6273 21.5954 11.4473 21.6137 11.2723 21.5861L4.8809 20.5821V14.4238L12.1542 14.4049H12.1581C12.9429 14.4049 13.249 15.0225 13.2724 15.552C13.2917 15.9884 13.0973 16.7439 12.25 16.829L8.2576 16.812C8.25688 16.812 8.25616 16.812 8.25539 16.812C7.9732 16.812 7.74382 17.0402 7.74264 17.3227C7.74146 17.6059 7.97007 17.8365 8.25329 17.8376L12.2704 17.8547C12.6503 17.8547 13.0949 17.6854 13.4021 17.4642L21.4669 15.3823C22.1663 15.1972 22.7213 15.6946 22.9081 16.2816C22.9814 16.5118 23.1544 17.2874 22.3054 17.6046Z" fill="#016342"/>
</svg>
