<svg width="24" height="24" viewBox="0 0 24 24" fill="none" xmlns="http://www.w3.org/2000/svg">
<path d="M23.5 5.69928H22.0718V4.6246C22.0718 4.42432 21.9523 4.24338 21.7681 4.16472C18.7519 2.87716 15.041 3.42286 12 5.57974C8.95904 3.42286 5.24799 2.87732 2.23189 4.16472C2.04765 4.24338 1.92817 4.42432 1.92817 4.6246V5.69928H0.499993C0.223895 5.69928 0 5.92313 0 6.19928V20.0195C0 20.2956 0.223895 20.5194 0.499993 20.5194H12H23.5C23.7762 20.5194 24 20.2956 24 20.0195V6.19933C24 5.92318 23.7762 5.69928 23.5 5.69928ZM0.999985 19.5195V6.69932H1.92817V18.4448C1.92817 18.6128 2.01251 18.7694 2.15262 18.862C2.29278 18.9545 2.46995 18.9705 2.62443 18.9046C4.96646 17.9048 7.79478 18.1549 10.3051 19.5195H0.999985ZM11.5 19.0634C9.67516 17.9006 7.64517 17.2968 5.68568 17.2968C4.73967 17.2968 3.81022 17.4375 2.9282 17.724V6.20512C2.9282 6.20314 2.92851 6.20126 2.92851 6.19933C2.92851 6.1974 2.92825 6.19547 2.9282 6.19354V4.9628C5.59508 3.96322 8.82884 4.52222 11.5 6.45146V19.0634ZM12.5 6.45146C15.1712 4.52217 18.4051 3.96322 21.0718 4.9628V6.19349C21.0718 6.19542 21.0715 6.19735 21.0715 6.19928C21.0715 6.20121 21.0718 6.20314 21.0718 6.20507V17.7239C18.3628 16.8439 15.2058 17.3392 12.5 19.0634V6.45146ZM23 19.5195H13.6949C16.2052 18.1549 19.0335 17.9049 21.3756 18.9046C21.53 18.9706 21.7074 18.9546 21.8474 18.862C21.9875 18.7694 22.0718 18.6127 22.0718 18.4448V6.69932H23V19.5195Z" fill="#016342"/>
</svg>
